<svg id="svg" version="1.1" xmlns="http://www.w3.org/2000/svg" xmlns:xlink="http://www.w3.org/1999/xlink" width="400" height="400" viewBox="0, 0, 400,400"><g id="svgg"><path id="path0" d="M260.907 67.223 C 259.976 67.406,258.619 67.838,257.893 68.183 C 256.570 68.810,233.695 91.417,234.025 91.770 C 234.810 92.610,274.951 132.800,275.003 132.800 C 275.347 132.800,297.466 110.232,298.092 109.242 C 300.147 105.996,300.144 101.251,298.086 97.952 C 297.250 96.612,270.538 69.711,269.000 68.660 C 267.151 67.397,263.404 66.732,260.907 67.223 M166.674 158.726 L 111.200 214.201 111.200 234.701 L 111.200 255.200 131.913 255.200 L 152.626 255.200 208.118 199.707 L 263.610 144.213 243.505 124.082 C 232.447 113.010,223.118 103.793,222.774 103.601 C 222.282 103.326,210.249 115.150,166.674 158.726 M67.280 289.680 C 66.588 290.372,66.588 332.028,67.280 332.720 C 67.979 333.419,332.021 333.419,332.720 332.720 C 333.229 332.211,333.456 291.132,332.957 289.833 C 332.636 288.997,68.115 288.845,67.280 289.680 " stroke="none" fill="#070708" fill-rule="evenodd"></path><path id="path1" d="M197.000 0.400 C 197.136 0.620,198.047 0.800,199.024 0.800 C 200.001 0.800,200.800 0.980,200.800 1.200 C 200.800 1.420,200.584 1.600,200.320 1.600 C 199.947 1.600,199.947 1.707,200.320 2.080 C 201.184 2.944,200.831 3.200,198.776 3.200 C 197.529 3.200,196.848 3.353,197.000 3.600 C 197.136 3.820,198.069 4.000,199.073 4.000 C 200.599 4.000,200.821 4.093,200.430 4.564 C 200.104 4.957,200.091 5.209,200.387 5.392 C 201.221 5.908,200.325 6.400,198.553 6.400 C 197.455 6.400,196.849 6.556,197.000 6.800 C 197.136 7.020,198.069 7.200,199.073 7.200 C 200.599 7.200,200.821 7.293,200.430 7.764 C 200.104 8.157,200.091 8.409,200.387 8.592 C 201.216 9.104,200.329 9.601,198.476 9.663 L 196.600 9.726 198.510 9.963 C 199.560 10.093,200.387 10.380,200.346 10.600 C 200.054 12.193,199.850 12.400,198.577 12.400 C 197.846 12.400,197.136 12.580,197.000 12.800 C 196.851 13.042,197.396 13.200,198.376 13.200 C 200.147 13.200,200.530 13.732,199.100 14.204 L 198.200 14.502 199.100 14.679 C 200.506 14.955,200.156 15.600,198.600 15.600 C 197.830 15.600,197.200 15.780,197.200 16.000 C 197.200 16.220,197.830 16.400,198.600 16.400 C 199.889 16.400,200.000 16.495,200.000 17.600 L 200.000 18.800 197.000 18.800 C 195.267 18.800,194.000 18.969,194.000 19.200 C 194.000 19.431,195.267 19.600,197.000 19.600 C 198.733 19.600,200.000 19.769,200.000 20.000 C 200.000 20.220,199.269 20.400,198.376 20.400 C 197.396 20.400,196.851 20.558,197.000 20.800 C 197.136 21.020,197.697 21.200,198.247 21.200 C 198.812 21.200,199.140 21.374,199.000 21.600 C 198.864 21.820,197.943 22.000,196.953 22.000 C 195.855 22.000,195.249 22.156,195.400 22.400 C 195.536 22.620,196.457 22.800,197.447 22.800 C 199.372 22.800,199.579 23.564,197.676 23.647 C 196.610 23.694,196.611 23.697,197.800 23.951 C 199.788 24.376,198.980 24.986,196.106 25.229 L 193.400 25.459 196.076 25.529 C 198.536 25.594,200.545 26.400,198.247 26.400 C 196.916 26.400,196.584 27.029,197.704 27.427 C 198.381 27.668,198.039 27.781,196.300 27.893 C 193.366 28.081,193.287 28.800,196.200 28.800 C 198.465 28.800,199.087 29.280,197.500 29.804 L 196.600 30.102 197.500 30.279 C 199.214 30.616,198.390 31.200,196.200 31.200 C 194.990 31.200,194.000 31.380,194.000 31.600 C 194.000 31.820,194.990 32.000,196.200 32.000 C 197.410 32.000,198.400 32.180,198.400 32.400 C 198.400 32.620,198.118 32.800,197.773 32.800 C 197.328 32.800,197.220 33.032,197.400 33.600 C 197.629 34.320,197.472 34.400,195.827 34.400 C 194.822 34.400,194.000 34.580,194.000 34.800 C 194.000 35.020,194.810 35.200,195.800 35.200 C 196.790 35.200,197.600 35.380,197.600 35.600 C 197.600 35.820,197.420 36.000,197.200 36.000 C 196.980 36.000,196.800 36.360,196.800 36.800 C 196.800 37.448,196.533 37.600,195.400 37.600 C 194.630 37.600,194.000 37.780,194.000 38.000 C 194.000 38.220,194.630 38.400,195.400 38.400 C 196.170 38.400,196.800 38.580,196.800 38.800 C 196.800 39.020,196.170 39.200,195.400 39.200 C 194.630 39.200,194.000 39.380,194.000 39.600 C 194.000 39.820,194.641 40.000,195.424 40.000 C 197.318 40.000,196.811 40.785,194.876 40.847 C 193.458 40.893,193.446 40.905,194.577 41.147 C 196.088 41.472,196.088 42.128,194.577 42.453 L 193.400 42.705 194.700 42.753 C 197.172 42.843,196.010 43.600,193.400 43.600 C 191.933 43.600,190.800 43.774,190.800 44.000 C 190.800 44.220,191.790 44.400,193.000 44.400 C 194.210 44.400,195.200 44.580,195.200 44.800 C 195.200 45.020,194.930 45.200,194.600 45.200 C 194.270 45.200,194.000 45.380,194.000 45.600 C 194.000 45.820,194.270 46.000,194.600 46.000 C 194.930 46.000,195.200 46.180,195.200 46.400 C 195.200 46.620,194.210 46.800,193.000 46.800 C 191.790 46.800,190.800 46.980,190.800 47.200 C 190.800 47.420,191.580 47.600,192.533 47.600 C 194.193 47.600,194.267 47.651,194.267 48.800 C 194.267 49.949,194.193 50.000,192.533 50.000 C 191.580 50.000,190.800 50.180,190.800 50.400 C 190.800 50.620,191.430 50.800,192.200 50.800 C 192.970 50.800,193.600 50.980,193.600 51.200 C 193.600 51.420,192.970 51.600,192.200 51.600 C 191.430 51.600,190.800 51.780,190.800 52.000 C 190.800 52.220,191.430 52.400,192.200 52.400 C 192.970 52.400,193.600 52.580,193.600 52.800 C 193.600 53.020,192.610 53.200,191.400 53.200 C 190.190 53.200,189.200 53.380,189.200 53.600 C 189.200 53.820,190.010 54.000,191.000 54.000 C 191.990 54.000,192.800 54.180,192.800 54.400 C 192.800 54.620,192.350 54.800,191.800 54.800 C 191.250 54.800,190.800 54.980,190.800 55.200 C 190.800 55.420,191.250 55.600,191.800 55.600 C 192.350 55.600,192.800 55.780,192.800 56.000 C 192.800 56.227,191.640 56.400,190.120 56.400 C 186.906 56.400,187.123 57.089,190.400 57.287 C 192.348 57.405,192.489 57.469,191.629 57.845 L 190.659 58.270 191.612 58.519 C 193.039 58.892,192.219 59.365,189.669 59.639 L 187.400 59.882 189.276 59.941 C 190.808 59.989,192.646 60.800,191.224 60.800 C 190.991 60.800,190.800 61.160,190.800 61.600 C 190.800 62.302,190.533 62.400,188.624 62.400 C 187.427 62.400,186.336 62.580,186.200 62.800 C 186.047 63.048,186.796 63.200,188.176 63.200 C 189.399 63.200,190.400 63.380,190.400 63.600 C 190.400 63.820,189.770 64.000,189.000 64.000 C 188.230 64.000,187.600 64.180,187.600 64.400 C 187.600 64.620,188.050 64.800,188.600 64.800 C 189.150 64.800,189.600 64.980,189.600 65.200 C 189.600 65.426,188.467 65.600,187.000 65.600 C 185.533 65.600,184.400 65.774,184.400 66.000 C 184.400 66.220,185.390 66.400,186.600 66.400 C 187.810 66.400,188.800 66.580,188.800 66.800 C 188.800 67.020,188.530 67.200,188.200 67.200 C 187.870 67.200,187.600 67.380,187.600 67.600 C 187.600 67.820,187.870 68.000,188.200 68.000 C 188.530 68.000,188.800 68.180,188.800 68.400 C 188.800 68.620,187.799 68.800,186.576 68.800 C 185.196 68.800,184.447 68.952,184.600 69.200 C 184.736 69.420,185.683 69.600,186.704 69.600 C 188.620 69.600,188.680 70.171,186.800 70.515 C 185.805 70.698,185.804 70.700,186.696 70.995 C 188.181 71.486,187.291 72.000,184.953 72.000 C 183.588 72.000,182.847 72.152,183.000 72.400 C 183.136 72.620,184.057 72.800,185.047 72.800 C 186.970 72.800,187.186 73.580,185.276 73.625 C 184.213 73.650,184.211 73.655,185.126 74.022 C 186.602 74.614,185.744 75.194,183.276 75.272 L 181.000 75.344 183.000 75.484 C 185.755 75.676,186.464 75.978,185.254 76.444 C 184.472 76.745,184.394 76.911,184.803 77.404 C 185.229 77.917,185.044 78.000,183.473 78.000 C 182.469 78.000,181.536 78.180,181.400 78.400 C 181.253 78.638,181.721 78.800,182.553 78.800 C 183.323 78.800,184.064 78.980,184.200 79.200 C 184.347 79.438,183.879 79.600,183.047 79.600 C 182.277 79.600,181.536 79.780,181.400 80.000 C 181.256 80.233,181.663 80.400,182.376 80.400 C 183.049 80.400,183.600 80.580,183.600 80.800 C 183.600 81.026,182.467 81.200,181.000 81.200 C 179.533 81.200,178.400 81.374,178.400 81.600 C 178.400 81.820,179.390 82.000,180.600 82.000 C 181.810 82.000,182.800 82.180,182.800 82.400 C 182.800 82.620,182.518 82.800,182.173 82.800 C 181.728 82.800,181.620 83.032,181.800 83.600 C 182.029 84.320,181.872 84.400,180.227 84.400 C 179.222 84.400,178.400 84.580,178.400 84.800 C 178.400 85.020,179.030 85.200,179.800 85.200 C 180.933 85.200,181.200 85.352,181.200 86.000 C 181.200 86.440,181.020 86.800,180.800 86.800 C 180.580 86.800,180.400 86.620,180.400 86.400 C 180.400 86.180,180.184 86.000,179.920 86.000 C 179.547 86.000,179.547 86.107,179.920 86.480 C 180.819 87.379,180.402 87.600,177.800 87.600 C 176.333 87.600,175.200 87.774,175.200 88.000 C 175.200 88.220,176.190 88.400,177.400 88.400 C 178.610 88.400,179.600 88.580,179.600 88.800 C 179.600 89.020,179.204 89.200,178.720 89.200 C 178.036 89.200,177.947 89.307,178.320 89.680 C 179.169 90.529,178.842 90.799,176.900 90.853 C 175.198 90.900,175.137 90.931,176.316 91.153 C 177.039 91.289,177.631 91.580,177.631 91.800 C 177.631 92.020,177.039 92.311,176.316 92.447 C 175.092 92.677,175.077 92.698,176.100 92.747 C 178.274 92.851,177.153 93.600,174.824 93.600 C 173.517 93.600,172.336 93.780,172.200 94.000 C 172.047 94.248,172.796 94.400,174.176 94.400 C 175.399 94.400,176.400 94.580,176.400 94.800 C 176.400 95.020,176.118 95.200,175.773 95.200 C 175.328 95.200,175.220 95.432,175.400 96.000 C 175.629 96.720,175.472 96.800,173.827 96.800 C 172.822 96.800,172.000 96.980,172.000 97.200 C 172.000 97.420,172.630 97.600,173.400 97.600 C 174.170 97.600,174.800 97.780,174.800 98.000 C 174.800 98.220,174.170 98.400,173.400 98.400 C 172.630 98.400,172.000 98.580,172.000 98.800 C 172.000 99.020,172.450 99.200,173.000 99.200 C 173.550 99.200,174.000 99.380,174.000 99.600 C 174.000 99.826,172.867 100.000,171.400 100.000 C 169.933 100.000,168.800 100.174,168.800 100.400 C 168.800 100.620,169.790 100.800,171.000 100.800 C 172.210 100.800,173.200 100.980,173.200 101.200 C 173.200 101.420,172.930 101.600,172.600 101.600 C 172.270 101.600,172.000 101.780,172.000 102.000 C 172.000 102.220,172.191 102.400,172.424 102.400 C 172.657 102.400,172.736 102.580,172.600 102.800 C 172.464 103.020,171.543 103.200,170.553 103.200 C 169.455 103.200,168.849 103.356,169.000 103.600 C 169.136 103.820,169.723 104.000,170.304 104.000 C 171.568 104.000,171.072 104.646,169.600 104.915 C 168.605 105.098,168.604 105.100,169.496 105.395 C 170.981 105.886,170.091 106.400,167.753 106.400 C 166.388 106.400,165.647 106.552,165.800 106.800 C 165.936 107.020,166.857 107.200,167.847 107.200 C 170.258 107.200,169.737 107.982,167.276 108.057 L 165.400 108.114 166.913 108.357 C 169.408 108.758,168.614 109.385,165.305 109.627 C 162.422 109.837,162.362 109.859,164.476 109.927 C 166.838 110.003,167.830 110.542,166.330 110.934 C 165.602 111.124,165.549 111.256,165.983 111.780 C 166.441 112.332,166.119 112.400,163.049 112.400 C 161.016 112.400,159.600 112.564,159.600 112.800 C 159.600 113.031,160.867 113.200,162.600 113.200 C 164.333 113.200,165.600 113.369,165.600 113.600 C 165.600 113.820,164.970 114.000,164.200 114.000 C 163.430 114.000,162.800 114.180,162.800 114.400 C 162.800 114.620,163.070 114.800,163.400 114.800 C 163.730 114.800,164.000 114.980,164.000 115.200 C 164.000 115.420,163.010 115.600,161.800 115.600 C 160.590 115.600,159.600 115.780,159.600 116.000 C 159.600 116.220,160.410 116.400,161.400 116.400 C 163.288 116.400,163.623 116.751,162.570 117.625 C 162.047 118.059,161.871 118.050,161.543 117.574 C 161.250 117.149,161.213 117.233,161.401 117.900 C 161.645 118.768,161.560 118.800,159.027 118.800 C 157.542 118.800,156.400 118.974,156.400 119.200 C 156.400 119.420,157.390 119.600,158.600 119.600 C 159.810 119.600,160.800 119.780,160.800 120.000 C 160.800 120.220,159.810 120.400,158.600 120.400 C 157.390 120.400,156.400 120.580,156.400 120.800 C 156.400 121.020,157.030 121.200,157.800 121.200 C 158.570 121.200,159.200 121.380,159.200 121.600 C 159.200 121.831,157.925 122.000,156.176 122.000 C 154.263 122.000,153.244 122.147,153.400 122.400 C 153.536 122.620,154.717 122.800,156.024 122.800 C 157.341 122.800,158.400 122.978,158.400 123.200 C 158.400 123.420,157.928 123.600,157.351 123.600 C 156.477 123.600,156.383 123.697,156.786 124.184 C 157.395 124.917,156.554 125.146,152.600 125.320 L 149.800 125.443 152.876 125.522 C 155.889 125.598,157.870 126.400,155.047 126.400 C 153.380 126.400,152.846 126.981,154.104 127.425 C 154.790 127.668,154.484 127.778,152.800 127.894 C 150.256 128.070,149.044 128.800,151.296 128.800 C 152.097 128.800,152.864 128.980,153.000 129.200 C 153.147 129.438,152.679 129.600,151.847 129.600 C 151.077 129.600,150.336 129.780,150.200 130.000 C 150.060 130.226,150.388 130.400,150.953 130.400 C 151.503 130.400,152.064 130.580,152.200 130.800 C 152.355 131.051,151.471 131.200,149.824 131.200 C 148.341 131.200,147.200 131.374,147.200 131.600 C 147.200 131.820,148.010 132.000,149.000 132.000 C 149.990 132.000,150.800 132.180,150.800 132.400 C 150.800 132.620,149.990 132.800,149.000 132.800 C 148.010 132.800,147.200 132.980,147.200 133.200 C 147.200 133.420,147.650 133.600,148.200 133.600 C 148.750 133.600,149.200 133.780,149.200 134.000 C 149.200 134.226,148.067 134.400,146.600 134.400 C 145.133 134.400,144.000 134.574,144.000 134.800 C 144.000 135.020,144.810 135.200,145.800 135.200 C 146.790 135.200,147.600 135.380,147.600 135.600 C 147.600 135.820,147.420 136.000,147.200 136.000 C 146.980 136.000,146.800 136.360,146.800 136.800 C 146.800 137.529,146.533 137.600,143.800 137.600 C 142.067 137.600,140.800 137.769,140.800 138.000 C 140.800 138.220,141.790 138.400,143.000 138.400 C 144.210 138.400,145.200 138.580,145.200 138.800 C 145.200 139.020,144.210 139.200,143.000 139.200 C 141.790 139.200,140.800 139.380,140.800 139.600 C 140.800 139.820,141.430 140.000,142.200 140.000 C 145.066 140.000,143.505 140.802,140.500 140.874 C 137.853 140.937,137.722 140.970,139.600 141.097 C 142.031 141.261,143.145 141.880,141.693 142.260 C 141.202 142.388,140.800 142.742,140.800 143.047 C 140.800 143.468,140.091 143.600,137.824 143.600 C 136.187 143.600,134.736 143.780,134.600 144.000 C 134.447 144.248,135.188 144.400,136.553 144.400 C 137.763 144.400,138.864 144.580,139.000 144.800 C 139.153 145.048,138.412 145.200,137.047 145.200 C 135.837 145.200,134.736 145.380,134.600 145.600 C 134.453 145.838,134.921 146.000,135.753 146.000 C 136.523 146.000,137.264 146.180,137.400 146.400 C 137.556 146.653,136.545 146.800,134.647 146.800 C 132.997 146.800,131.536 146.980,131.400 147.200 C 131.248 147.447,131.929 147.600,133.176 147.600 C 134.289 147.600,135.200 147.780,135.200 148.000 C 135.200 148.220,134.401 148.400,133.424 148.400 C 132.447 148.400,131.536 148.580,131.400 148.800 C 131.256 149.033,131.663 149.200,132.376 149.200 C 133.049 149.200,133.600 149.380,133.600 149.600 C 133.600 149.841,131.933 150.000,129.400 150.000 C 126.867 150.000,125.200 150.159,125.200 150.400 C 125.200 150.635,126.600 150.800,128.600 150.800 C 130.600 150.800,132.000 150.965,132.000 151.200 C 132.000 151.420,131.190 151.600,130.200 151.600 C 129.210 151.600,128.400 151.780,128.400 152.000 C 128.400 152.220,128.850 152.400,129.400 152.400 C 129.950 152.400,130.400 152.580,130.400 152.800 C 130.400 153.026,129.267 153.200,127.800 153.200 C 126.333 153.200,125.200 153.374,125.200 153.600 C 125.200 153.820,125.830 154.000,126.600 154.000 C 127.370 154.000,128.000 154.180,128.000 154.400 C 128.000 154.620,127.370 154.800,126.600 154.800 C 125.830 154.800,125.200 154.980,125.200 155.200 C 125.200 155.420,125.470 155.600,125.800 155.600 C 126.130 155.600,126.400 155.780,126.400 156.000 C 126.400 156.239,124.859 156.400,122.576 156.400 C 120.129 156.400,118.842 156.544,119.000 156.800 C 119.136 157.020,120.417 157.200,121.847 157.200 C 123.479 157.200,124.355 157.349,124.200 157.600 C 124.064 157.820,123.491 158.000,122.927 158.000 C 122.100 158.000,121.991 158.107,122.361 158.553 C 123.014 159.340,122.162 159.585,118.467 159.672 C 116.204 159.725,115.924 159.781,117.400 159.884 C 120.323 160.088,120.764 160.326,119.465 161.000 C 118.866 161.311,118.156 161.513,117.888 161.448 C 117.619 161.384,117.535 161.407,117.700 161.499 C 118.767 162.096,117.451 162.400,113.800 162.400 C 111.267 162.400,109.600 162.559,109.600 162.800 C 109.600 163.035,111.000 163.200,113.000 163.200 C 115.000 163.200,116.400 163.365,116.400 163.600 C 116.400 163.820,115.590 164.000,114.600 164.000 C 113.610 164.000,112.800 164.180,112.800 164.400 C 112.800 164.620,113.070 164.800,113.400 164.800 C 113.730 164.800,114.000 164.980,114.000 165.200 C 114.000 165.439,112.467 165.600,110.200 165.600 C 107.933 165.600,106.400 165.761,106.400 166.000 C 106.400 166.226,107.533 166.400,109.000 166.400 C 110.467 166.400,111.600 166.574,111.600 166.800 C 111.600 167.020,111.171 167.200,110.647 167.200 C 110.030 167.200,109.619 167.482,109.484 168.000 C 109.290 168.742,108.938 168.800,104.614 168.800 C 101.608 168.800,100.041 168.942,100.200 169.200 C 100.336 169.420,101.877 169.600,103.624 169.600 C 105.475 169.600,106.800 169.767,106.800 170.000 C 106.800 170.220,105.968 170.400,104.951 170.400 C 103.450 170.400,103.186 170.501,103.548 170.937 C 104.273 171.811,103.652 172.000,100.053 172.000 C 96.266 172.000,95.925 172.666,99.600 172.885 C 101.612 173.005,101.713 173.054,100.784 173.466 C 100.225 173.714,99.527 174.205,99.235 174.558 C 98.798 175.084,97.679 175.215,93.051 175.284 C 88.127 175.357,87.914 175.384,91.396 175.499 C 95.974 175.651,97.708 176.400,93.480 176.400 C 91.960 176.400,90.800 176.573,90.800 176.800 C 90.800 177.020,91.250 177.200,91.800 177.200 C 92.350 177.200,92.800 177.380,92.800 177.600 C 92.800 177.840,91.208 178.000,88.824 178.000 C 86.604 178.000,84.738 178.177,84.600 178.400 C 84.445 178.651,85.321 178.800,86.953 178.800 C 88.383 178.800,89.664 178.980,89.800 179.200 C 89.944 179.432,89.549 179.600,88.857 179.600 C 88.202 179.600,87.598 179.805,87.515 180.054 C 87.406 180.383,87.133 180.365,86.535 179.991 C 86.005 179.660,85.434 179.598,84.953 179.817 C 84.323 180.105,84.413 180.185,85.500 180.306 C 88.878 180.682,86.273 181.200,81.000 181.200 C 77.400 181.200,75.200 181.352,75.200 181.600 C 75.200 181.841,76.867 182.000,79.400 182.000 C 81.933 182.000,83.600 182.159,83.600 182.400 C 83.600 182.626,82.467 182.800,81.000 182.800 C 79.533 182.800,78.400 182.974,78.400 183.200 C 78.400 183.420,78.850 183.600,79.400 183.600 C 79.950 183.600,80.400 183.780,80.400 184.000 C 80.400 184.248,78.200 184.400,74.600 184.400 C 71.000 184.400,68.800 184.552,68.800 184.800 C 68.800 185.039,70.333 185.200,72.600 185.200 C 74.867 185.200,76.400 185.361,76.400 185.600 C 76.400 185.820,75.410 186.000,74.200 186.000 C 72.990 186.000,72.000 186.180,72.000 186.400 C 72.000 186.620,72.191 186.800,72.424 186.800 C 72.657 186.800,72.736 186.980,72.600 187.200 C 72.452 187.440,69.796 187.600,65.976 187.600 C 61.992 187.600,59.600 187.750,59.600 188.000 C 59.600 188.244,61.427 188.400,64.280 188.400 C 69.503 188.400,70.181 189.067,65.200 189.304 C 63.078 189.405,62.462 189.541,63.096 189.769 C 65.077 190.481,63.223 190.804,56.676 190.886 C 50.943 190.958,50.581 190.993,54.500 191.099 C 58.308 191.201,59.200 191.337,59.200 191.813 C 59.200 192.424,57.779 192.610,54.616 192.413 C 53.201 192.325,53.088 192.384,53.565 192.957 C 54.052 193.545,53.136 193.600,42.873 193.600 C 35.820 193.600,31.555 193.749,31.400 194.000 C 31.238 194.262,33.996 194.400,39.376 194.400 C 44.592 194.400,47.600 194.546,47.600 194.800 C 47.600 195.045,45.667 195.200,42.600 195.200 C 39.533 195.200,37.600 195.355,37.600 195.600 C 37.600 195.820,38.230 196.000,39.000 196.000 C 39.770 196.000,40.400 196.180,40.400 196.400 C 40.400 196.659,35.533 196.800,26.600 196.800 C 17.667 196.800,12.800 196.941,12.800 197.200 C 12.800 197.456,16.400 197.600,22.800 197.600 C 29.200 197.600,32.800 197.744,32.800 198.000 C 32.800 198.238,31.293 198.400,29.080 198.400 C 26.935 198.400,25.176 198.584,24.925 198.835 C 24.612 199.148,24.415 199.148,24.222 198.835 C 23.775 198.112,22.041 198.345,21.507 199.200 C 21.028 199.967,20.574 200.000,10.504 200.000 L 0.000 200.000 0.000 300.000 L 0.000 400.000 200.000 400.000 L 400.000 400.000 400.000 200.000 L 400.000 0.000 298.376 0.000 C 230.729 0.000,196.835 0.134,197.000 0.400 M267.324 66.768 C 268.309 67.190,269.528 67.865,270.032 68.268 C 272.497 70.236,298.671 96.814,299.147 97.831 C 299.447 98.474,299.852 99.313,300.047 99.695 C 300.855 101.284,300.454 106.777,299.370 108.942 C 298.071 111.538,276.266 133.593,275.000 133.592 C 274.166 133.591,232.800 92.519,232.800 91.692 C 232.800 91.071,254.554 69.406,256.532 68.057 C 259.783 65.838,263.986 65.336,267.324 66.768 M225.295 104.700 C 244.764 123.917,264.398 143.827,264.391 144.346 C 264.386 144.706,239.306 170.065,208.658 200.700 L 152.935 256.400 132.011 256.400 C 112.554 256.400,111.051 256.351,110.557 255.700 C 110.132 255.140,110.023 250.950,110.013 234.723 L 110.000 214.446 112.300 211.958 C 115.688 208.295,222.046 102.000,222.323 102.000 C 222.453 102.000,223.791 103.215,225.295 104.700 M144.000 131.600 C 144.000 131.820,144.450 132.000,145.000 132.000 C 145.550 132.000,146.000 131.820,146.000 131.600 C 146.000 131.380,145.550 131.200,145.000 131.200 C 144.450 131.200,144.000 131.380,144.000 131.600 M144.000 136.400 C 144.000 136.620,144.450 136.800,145.000 136.800 C 145.550 136.800,146.000 136.620,146.000 136.400 C 146.000 136.180,145.550 136.000,145.000 136.000 C 144.450 136.000,144.000 136.180,144.000 136.400 M131.400 144.000 C 131.255 144.234,131.670 144.400,132.400 144.400 C 133.130 144.400,133.545 144.234,133.400 144.000 C 133.264 143.780,132.814 143.600,132.400 143.600 C 131.986 143.600,131.536 143.780,131.400 144.000 M122.000 153.600 C 122.000 153.820,122.450 154.000,123.000 154.000 C 123.550 154.000,124.000 153.820,124.000 153.600 C 124.000 153.380,123.550 153.200,123.000 153.200 C 122.450 153.200,122.000 153.380,122.000 153.600 M119.300 158.276 C 119.685 158.376,120.315 158.376,120.700 158.276 C 121.085 158.175,120.770 158.093,120.000 158.093 C 119.230 158.093,118.915 158.175,119.300 158.276 M106.400 167.600 C 106.400 167.820,106.850 168.000,107.400 168.000 C 107.950 168.000,108.400 167.820,108.400 167.600 C 108.400 167.380,107.950 167.200,107.400 167.200 C 106.850 167.200,106.400 167.380,106.400 167.600 M100.200 170.800 C 100.336 171.020,100.786 171.200,101.200 171.200 C 101.614 171.200,102.064 171.020,102.200 170.800 C 102.345 170.566,101.930 170.400,101.200 170.400 C 100.470 170.400,100.055 170.566,100.200 170.800 M94.000 172.400 C 94.000 172.620,94.349 172.800,94.776 172.800 C 95.203 172.800,95.664 172.620,95.800 172.400 C 95.940 172.173,95.604 172.000,95.024 172.000 C 94.461 172.000,94.000 172.180,94.000 172.400 M97.300 173.876 C 97.685 173.976,98.315 173.976,98.700 173.876 C 99.085 173.775,98.770 173.693,98.000 173.693 C 97.230 173.693,96.915 173.775,97.300 173.876 M81.400 178.400 C 81.255 178.634,81.670 178.800,82.400 178.800 C 83.130 178.800,83.545 178.634,83.400 178.400 C 83.264 178.180,82.814 178.000,82.400 178.000 C 81.986 178.000,81.536 178.180,81.400 178.400 M75.200 183.200 C 75.200 183.420,75.650 183.600,76.200 183.600 C 76.750 183.600,77.200 183.420,77.200 183.200 C 77.200 182.980,76.750 182.800,76.200 182.800 C 75.650 182.800,75.200 182.980,75.200 183.200 M68.800 186.400 C 68.800 186.620,69.250 186.800,69.800 186.800 C 70.350 186.800,70.800 186.620,70.800 186.400 C 70.800 186.180,70.350 186.000,69.800 186.000 C 69.250 186.000,68.800 186.180,68.800 186.400 M56.400 188.000 C 56.400 188.220,56.850 188.400,57.400 188.400 C 57.950 188.400,58.400 188.220,58.400 188.000 C 58.400 187.780,57.950 187.600,57.400 187.600 C 56.850 187.600,56.400 187.780,56.400 188.000 M59.600 189.600 C 59.600 189.820,59.949 190.000,60.376 190.000 C 60.803 190.000,61.264 189.820,61.400 189.600 C 61.540 189.373,61.204 189.200,60.624 189.200 C 60.061 189.200,59.600 189.380,59.600 189.600 M47.300 191.076 C 47.685 191.176,48.315 191.176,48.700 191.076 C 49.085 190.975,48.770 190.893,48.000 190.893 C 47.230 190.893,46.915 190.975,47.300 191.076 M50.500 192.676 C 50.885 192.776,51.515 192.776,51.900 192.676 C 52.285 192.575,51.970 192.493,51.200 192.493 C 50.430 192.493,50.115 192.575,50.500 192.676 M25.200 194.000 C 25.200 194.220,25.661 194.400,26.224 194.400 C 26.804 194.400,27.140 194.227,27.000 194.000 C 26.864 193.780,26.403 193.600,25.976 193.600 C 25.549 193.600,25.200 193.780,25.200 194.000 M28.200 194.000 C 28.055 194.234,28.470 194.400,29.200 194.400 C 29.930 194.400,30.345 194.234,30.200 194.000 C 30.064 193.780,29.614 193.600,29.200 193.600 C 28.786 193.600,28.336 193.780,28.200 194.000 M31.400 195.600 C 31.255 195.834,31.670 196.000,32.400 196.000 C 33.130 196.000,33.545 195.834,33.400 195.600 C 33.264 195.380,32.814 195.200,32.400 195.200 C 31.986 195.200,31.536 195.380,31.400 195.600 M34.600 195.600 C 34.455 195.834,34.870 196.000,35.600 196.000 C 36.330 196.000,36.745 195.834,36.600 195.600 C 36.464 195.380,36.014 195.200,35.600 195.200 C 35.186 195.200,34.736 195.380,34.600 195.600 M0.000 197.200 C 0.000 197.420,0.551 197.600,1.224 197.600 C 1.937 197.600,2.344 197.433,2.200 197.200 C 2.064 196.980,1.513 196.800,0.976 196.800 C 0.439 196.800,0.000 196.980,0.000 197.200 M3.200 197.200 C 3.200 197.420,3.650 197.600,4.200 197.600 C 4.750 197.600,5.200 197.420,5.200 197.200 C 5.200 196.980,4.750 196.800,4.200 196.800 C 3.650 196.800,3.200 196.980,3.200 197.200 M6.400 197.200 C 6.400 197.420,6.850 197.600,7.400 197.600 C 7.950 197.600,8.400 197.420,8.400 197.200 C 8.400 196.980,7.950 196.800,7.400 196.800 C 6.850 196.800,6.400 196.980,6.400 197.200 M9.600 197.200 C 9.600 197.420,10.050 197.600,10.600 197.600 C 11.150 197.600,11.600 197.420,11.600 197.200 C 11.600 196.980,11.150 196.800,10.600 196.800 C 10.050 196.800,9.600 196.980,9.600 197.200 M6.400 198.800 C 6.400 199.020,6.850 199.200,7.400 199.200 C 7.950 199.200,8.400 199.020,8.400 198.800 C 8.400 198.580,7.950 198.400,7.400 198.400 C 6.850 198.400,6.400 198.580,6.400 198.800 M12.800 198.800 C 12.800 199.020,13.250 199.200,13.800 199.200 C 14.350 199.200,14.800 199.020,14.800 198.800 C 14.800 198.580,14.350 198.400,13.800 198.400 C 13.250 198.400,12.800 198.580,12.800 198.800 M15.800 198.800 C 15.655 199.034,16.070 199.200,16.800 199.200 C 17.530 199.200,17.945 199.034,17.800 198.800 C 17.664 198.580,17.214 198.400,16.800 198.400 C 16.386 198.400,15.936 198.580,15.800 198.800 M18.800 198.800 C 18.800 199.020,19.351 199.200,20.024 199.200 C 20.737 199.200,21.144 199.033,21.000 198.800 C 20.864 198.580,20.313 198.400,19.776 198.400 C 19.239 198.400,18.800 198.580,18.800 198.800 M333.554 288.945 C 333.882 289.339,333.978 295.616,333.903 311.645 L 333.800 333.800 200.000 333.800 L 66.200 333.800 66.097 311.645 C 66.022 295.616,66.118 289.339,66.446 288.945 C 67.123 288.129,332.877 288.129,333.554 288.945 " stroke="none" fill="#478dfb" fill-rule="evenodd"></path><path id="path2" d="M259.400 66.868 C 258.740 67.113,257.660 67.677,257.000 68.120 C 255.012 69.456,233.600 90.933,233.600 91.592 C 233.600 92.255,274.344 133.200,275.004 133.200 C 275.225 133.200,280.571 128.025,286.886 121.700 C 298.845 109.721,300.012 108.248,299.957 105.200 C 299.934 103.921,299.889 103.977,299.433 105.856 C 299.159 106.987,298.559 108.505,298.099 109.231 C 297.468 110.228,275.349 132.800,275.003 132.800 C 274.951 132.800,234.810 92.610,234.025 91.770 C 233.700 91.423,256.558 68.816,257.856 68.200 C 260.958 66.728,265.037 66.726,268.132 68.194 C 269.583 68.883,296.816 95.943,298.102 97.974 C 298.560 98.697,299.159 100.213,299.433 101.344 C 299.868 103.137,299.936 103.231,299.966 102.075 C 300.048 98.889,298.744 97.307,283.716 82.367 C 274.427 73.131,268.838 67.870,267.800 67.383 C 265.916 66.500,261.174 66.209,259.400 66.868 M166.299 158.301 L 110.800 213.801 110.800 234.693 L 110.800 255.585 111.700 255.807 C 112.195 255.929,121.645 255.977,132.700 255.914 L 152.799 255.800 208.400 200.201 C 238.980 169.621,264.000 144.420,264.000 144.199 C 264.000 143.547,223.054 102.800,222.398 102.800 C 222.069 102.800,196.824 127.775,166.299 158.301 M243.505 124.082 L 263.610 144.213 208.118 199.707 L 152.626 255.200 131.913 255.200 L 111.200 255.200 111.200 234.701 L 111.200 214.201 166.674 158.726 C 210.249 115.150,222.282 103.326,222.774 103.601 C 223.118 103.793,232.447 113.010,243.505 124.082 M66.584 289.299 C 66.478 289.575,66.439 299.610,66.496 311.600 L 66.600 333.400 200.000 333.400 L 333.400 333.400 333.400 311.200 L 333.400 289.000 200.088 288.899 C 93.648 288.819,66.737 288.900,66.584 289.299 M332.957 289.833 C 333.456 291.132,333.229 332.211,332.720 332.720 C 332.021 333.419,67.979 333.419,67.280 332.720 C 66.588 332.028,66.588 290.372,67.280 289.680 C 68.115 288.845,332.636 288.997,332.957 289.833 " stroke="none" fill="#2c4c84" fill-rule="evenodd"></path><path id="path3" d="M0.000 96.776 C 0.000 167.086,0.121 193.628,0.443 193.826 C 0.754 194.019,0.733 194.195,0.368 194.420 C -0.054 194.680,-0.052 194.855,0.375 195.370 C 0.725 195.792,0.750 196.000,0.449 196.000 C 0.202 196.000,0.000 196.180,0.000 196.400 C 0.000 196.620,0.439 196.800,0.976 196.800 C 1.513 196.800,2.064 196.980,2.200 197.200 C 2.344 197.433,1.937 197.600,1.224 197.600 C -0.077 197.600,-0.301 197.939,0.480 198.720 C 0.853 199.093,0.853 199.200,0.480 199.200 C 0.216 199.200,0.000 199.380,0.000 199.600 C 0.000 200.492,20.944 200.102,21.507 199.200 C 22.041 198.345,23.775 198.112,24.222 198.835 C 24.415 199.148,24.612 199.148,24.925 198.835 C 25.176 198.584,26.935 198.400,29.080 198.400 C 31.293 198.400,32.800 198.238,32.800 198.000 C 32.800 197.744,29.200 197.600,22.800 197.600 C 16.400 197.600,12.800 197.456,12.800 197.200 C 12.800 196.941,17.667 196.800,26.600 196.800 C 35.533 196.800,40.400 196.659,40.400 196.400 C 40.400 196.180,39.770 196.000,39.000 196.000 C 38.230 196.000,37.600 195.820,37.600 195.600 C 37.600 195.355,39.533 195.200,42.600 195.200 C 45.667 195.200,47.600 195.045,47.600 194.800 C 47.600 194.546,44.592 194.400,39.376 194.400 C 33.996 194.400,31.238 194.262,31.400 194.000 C 31.555 193.749,35.820 193.600,42.873 193.600 C 53.136 193.600,54.052 193.545,53.565 192.957 C 53.088 192.384,53.201 192.325,54.616 192.413 C 57.779 192.610,59.200 192.424,59.200 191.813 C 59.200 191.337,58.308 191.201,54.500 191.099 C 50.581 190.993,50.943 190.958,56.676 190.886 C 63.223 190.804,65.077 190.481,63.096 189.769 C 62.462 189.541,63.078 189.405,65.200 189.304 C 70.181 189.067,69.503 188.400,64.280 188.400 C 61.427 188.400,59.600 188.244,59.600 188.000 C 59.600 187.750,61.992 187.600,65.976 187.600 C 69.796 187.600,72.452 187.440,72.600 187.200 C 72.736 186.980,72.657 186.800,72.424 186.800 C 72.191 186.800,72.000 186.620,72.000 186.400 C 72.000 186.180,72.990 186.000,74.200 186.000 C 75.410 186.000,76.400 185.820,76.400 185.600 C 76.400 185.361,74.867 185.200,72.600 185.200 C 70.333 185.200,68.800 185.039,68.800 184.800 C 68.800 184.552,71.000 184.400,74.600 184.400 C 78.200 184.400,80.400 184.248,80.400 184.000 C 80.400 183.780,79.950 183.600,79.400 183.600 C 78.850 183.600,78.400 183.420,78.400 183.200 C 78.400 182.974,79.533 182.800,81.000 182.800 C 82.467 182.800,83.600 182.626,83.600 182.400 C 83.600 182.159,81.933 182.000,79.400 182.000 C 76.867 182.000,75.200 181.841,75.200 181.600 C 75.200 181.352,77.400 181.200,81.000 181.200 C 86.273 181.200,88.878 180.682,85.500 180.306 C 84.413 180.185,84.323 180.105,84.953 179.817 C 85.434 179.598,86.005 179.660,86.535 179.991 C 87.133 180.365,87.406 180.383,87.515 180.054 C 87.598 179.805,88.202 179.600,88.857 179.600 C 89.549 179.600,89.944 179.432,89.800 179.200 C 89.664 178.980,88.383 178.800,86.953 178.800 C 85.321 178.800,84.445 178.651,84.600 178.400 C 84.738 178.177,86.604 178.000,88.824 178.000 C 91.208 178.000,92.800 177.840,92.800 177.600 C 92.800 177.380,92.350 177.200,91.800 177.200 C 91.250 177.200,90.800 177.020,90.800 176.800 C 90.800 176.573,91.960 176.400,93.480 176.400 C 97.708 176.400,95.974 175.651,91.396 175.499 C 87.914 175.384,88.127 175.357,93.051 175.284 C 97.679 175.215,98.798 175.084,99.235 174.558 C 99.527 174.205,100.225 173.714,100.784 173.466 C 101.713 173.054,101.612 173.005,99.600 172.885 C 95.925 172.666,96.266 172.000,100.053 172.000 C 103.652 172.000,104.273 171.811,103.548 170.937 C 103.186 170.501,103.450 170.400,104.951 170.400 C 105.968 170.400,106.800 170.220,106.800 170.000 C 106.800 169.767,105.475 169.600,103.624 169.600 C 101.877 169.600,100.336 169.420,100.200 169.200 C 100.041 168.942,101.608 168.800,104.614 168.800 C 108.938 168.800,109.290 168.742,109.484 168.000 C 109.619 167.482,110.030 167.200,110.647 167.200 C 111.171 167.200,111.600 167.020,111.600 166.800 C 111.600 166.574,110.467 166.400,109.000 166.400 C 107.533 166.400,106.400 166.226,106.400 166.000 C 106.400 165.761,107.933 165.600,110.200 165.600 C 112.467 165.600,114.000 165.439,114.000 165.200 C 114.000 164.980,113.730 164.800,113.400 164.800 C 113.070 164.800,112.800 164.620,112.800 164.400 C 112.800 164.180,113.610 164.000,114.600 164.000 C 115.590 164.000,116.400 163.820,116.400 163.600 C 116.400 163.365,115.000 163.200,113.000 163.200 C 111.000 163.200,109.600 163.035,109.600 162.800 C 109.600 162.559,111.267 162.400,113.800 162.400 C 117.451 162.400,118.767 162.096,117.700 161.499 C 117.535 161.407,117.619 161.384,117.888 161.448 C 118.156 161.513,118.866 161.311,119.465 161.000 C 120.764 160.326,120.323 160.088,117.400 159.884 C 115.924 159.781,116.204 159.725,118.467 159.672 C 122.162 159.585,123.014 159.340,122.361 158.553 C 121.991 158.107,122.100 158.000,122.927 158.000 C 123.491 158.000,124.064 157.820,124.200 157.600 C 124.355 157.349,123.479 157.200,121.847 157.200 C 120.417 157.200,119.136 157.020,119.000 156.800 C 118.842 156.544,120.129 156.400,122.576 156.400 C 124.859 156.400,126.400 156.239,126.400 156.000 C 126.400 155.780,126.130 155.600,125.800 155.600 C 125.470 155.600,125.200 155.420,125.200 155.200 C 125.200 154.980,125.830 154.800,126.600 154.800 C 127.370 154.800,128.000 154.620,128.000 154.400 C 128.000 154.180,127.370 154.000,126.600 154.000 C 125.830 154.000,125.200 153.820,125.200 153.600 C 125.200 153.374,126.333 153.200,127.800 153.200 C 129.267 153.200,130.400 153.026,130.400 152.800 C 130.400 152.580,129.950 152.400,129.400 152.400 C 128.850 152.400,128.400 152.220,128.400 152.000 C 128.400 151.780,129.210 151.600,130.200 151.600 C 131.190 151.600,132.000 151.420,132.000 151.200 C 132.000 150.965,130.600 150.800,128.600 150.800 C 126.600 150.800,125.200 150.635,125.200 150.400 C 125.200 150.159,126.867 150.000,129.400 150.000 C 131.933 150.000,133.600 149.841,133.600 149.600 C 133.600 149.380,133.049 149.200,132.376 149.200 C 131.663 149.200,131.256 149.033,131.400 148.800 C 131.536 148.580,132.447 148.400,133.424 148.400 C 134.401 148.400,135.200 148.220,135.200 148.000 C 135.200 147.780,134.289 147.600,133.176 147.600 C 131.929 147.600,131.248 147.447,131.400 147.200 C 131.536 146.980,132.997 146.800,134.647 146.800 C 136.545 146.800,137.556 146.653,137.400 146.400 C 137.264 146.180,136.523 146.000,135.753 146.000 C 134.921 146.000,134.453 145.838,134.600 145.600 C 134.736 145.380,135.837 145.200,137.047 145.200 C 138.412 145.200,139.153 145.048,139.000 144.800 C 138.864 144.580,137.763 144.400,136.553 144.400 C 135.188 144.400,134.447 144.248,134.600 144.000 C 134.736 143.780,136.187 143.600,137.824 143.600 C 140.091 143.600,140.800 143.468,140.800 143.047 C 140.800 142.742,141.202 142.388,141.693 142.260 C 143.145 141.880,142.031 141.261,139.600 141.097 C 137.722 140.970,137.853 140.937,140.500 140.874 C 143.505 140.802,145.066 140.000,142.200 140.000 C 141.430 140.000,140.800 139.820,140.800 139.600 C 140.800 139.380,141.790 139.200,143.000 139.200 C 144.210 139.200,145.200 139.020,145.200 138.800 C 145.200 138.580,144.210 138.400,143.000 138.400 C 141.790 138.400,140.800 138.220,140.800 138.000 C 140.800 137.769,142.067 137.600,143.800 137.600 C 146.533 137.600,146.800 137.529,146.800 136.800 C 146.800 136.360,146.980 136.000,147.200 136.000 C 147.420 136.000,147.600 135.820,147.600 135.600 C 147.600 135.380,146.790 135.200,145.800 135.200 C 144.810 135.200,144.000 135.020,144.000 134.800 C 144.000 134.574,145.133 134.400,146.600 134.400 C 148.067 134.400,149.200 134.226,149.200 134.000 C 149.200 133.780,148.750 133.600,148.200 133.600 C 147.650 133.600,147.200 133.420,147.200 133.200 C 147.200 132.980,148.010 132.800,149.000 132.800 C 149.990 132.800,150.800 132.620,150.800 132.400 C 150.800 132.180,149.990 132.000,149.000 132.000 C 148.010 132.000,147.200 131.820,147.200 131.600 C 147.200 131.374,148.341 131.200,149.824 131.200 C 151.471 131.200,152.355 131.051,152.200 130.800 C 152.064 130.580,151.503 130.400,150.953 130.400 C 150.388 130.400,150.060 130.226,150.200 130.000 C 150.336 129.780,151.077 129.600,151.847 129.600 C 152.679 129.600,153.147 129.438,153.000 129.200 C 152.864 128.980,152.097 128.800,151.296 128.800 C 149.044 128.800,150.256 128.070,152.800 127.894 C 154.484 127.778,154.790 127.668,154.104 127.425 C 152.846 126.981,153.380 126.400,155.047 126.400 C 157.870 126.400,155.889 125.598,152.876 125.522 L 149.800 125.443 152.600 125.320 C 156.554 125.146,157.395 124.917,156.786 124.184 C 156.383 123.697,156.477 123.600,157.351 123.600 C 157.928 123.600,158.400 123.420,158.400 123.200 C 158.400 122.978,157.341 122.800,156.024 122.800 C 154.717 122.800,153.536 122.620,153.400 122.400 C 153.244 122.147,154.263 122.000,156.176 122.000 C 157.925 122.000,159.200 121.831,159.200 121.600 C 159.200 121.380,158.570 121.200,157.800 121.200 C 157.030 121.200,156.400 121.020,156.400 120.800 C 156.400 120.580,157.390 120.400,158.600 120.400 C 159.810 120.400,160.800 120.220,160.800 120.000 C 160.800 119.780,159.810 119.600,158.600 119.600 C 157.390 119.600,156.400 119.420,156.400 119.200 C 156.400 118.974,157.542 118.800,159.027 118.800 C 161.560 118.800,161.645 118.768,161.401 117.900 C 161.213 117.233,161.250 117.149,161.543 117.574 C 161.871 118.050,162.047 118.059,162.570 117.625 C 163.623 116.751,163.288 116.400,161.400 116.400 C 160.410 116.400,159.600 116.220,159.600 116.000 C 159.600 115.780,160.590 115.600,161.800 115.600 C 163.010 115.600,164.000 115.420,164.000 115.200 C 164.000 114.980,163.730 114.800,163.400 114.800 C 163.070 114.800,162.800 114.620,162.800 114.400 C 162.800 114.180,163.430 114.000,164.200 114.000 C 164.970 114.000,165.600 113.820,165.600 113.600 C 165.600 113.369,164.333 113.200,162.600 113.200 C 160.867 113.200,159.600 113.031,159.600 112.800 C 159.600 112.564,161.016 112.400,163.049 112.400 C 166.119 112.400,166.441 112.332,165.983 111.780 C 165.549 111.256,165.602 111.124,166.330 110.934 C 167.830 110.542,166.838 110.003,164.476 109.927 C 162.362 109.859,162.422 109.837,165.305 109.627 C 168.614 109.385,169.408 108.758,166.913 108.357 L 165.400 108.114 167.276 108.057 C 169.737 107.982,170.258 107.200,167.847 107.200 C 166.857 107.200,165.936 107.020,165.800 106.800 C 165.647 106.552,166.388 106.400,167.753 106.400 C 170.091 106.400,170.981 105.886,169.496 105.395 C 168.604 105.100,168.605 105.098,169.600 104.915 C 171.072 104.646,171.568 104.000,170.304 104.000 C 169.723 104.000,169.136 103.820,169.000 103.600 C 168.849 103.356,169.455 103.200,170.553 103.200 C 171.543 103.200,172.464 103.020,172.600 102.800 C 172.736 102.580,172.657 102.400,172.424 102.400 C 172.191 102.400,172.000 102.220,172.000 102.000 C 172.000 101.780,172.270 101.600,172.600 101.600 C 172.930 101.600,173.200 101.420,173.200 101.200 C 173.200 100.980,172.210 100.800,171.000 100.800 C 169.790 100.800,168.800 100.620,168.800 100.400 C 168.800 100.174,169.933 100.000,171.400 100.000 C 172.867 100.000,174.000 99.826,174.000 99.600 C 174.000 99.380,173.550 99.200,173.000 99.200 C 172.450 99.200,172.000 99.020,172.000 98.800 C 172.000 98.580,172.630 98.400,173.400 98.400 C 174.170 98.400,174.800 98.220,174.800 98.000 C 174.800 97.780,174.170 97.600,173.400 97.600 C 172.630 97.600,172.000 97.420,172.000 97.200 C 172.000 96.980,172.822 96.800,173.827 96.800 C 175.472 96.800,175.629 96.720,175.400 96.000 C 175.220 95.432,175.328 95.200,175.773 95.200 C 176.118 95.200,176.400 95.020,176.400 94.800 C 176.400 94.580,175.399 94.400,174.176 94.400 C 172.796 94.400,172.047 94.248,172.200 94.000 C 172.336 93.780,173.517 93.600,174.824 93.600 C 177.153 93.600,178.274 92.851,176.100 92.747 C 175.077 92.698,175.092 92.677,176.316 92.447 C 177.039 92.311,177.631 92.020,177.631 91.800 C 177.631 91.580,177.039 91.289,176.316 91.153 C 175.137 90.931,175.198 90.900,176.900 90.853 C 178.842 90.799,179.169 90.529,178.320 89.680 C 177.947 89.307,178.036 89.200,178.720 89.200 C 179.204 89.200,179.600 89.020,179.600 88.800 C 179.600 88.580,178.610 88.400,177.400 88.400 C 176.190 88.400,175.200 88.220,175.200 88.000 C 175.200 87.774,176.333 87.600,177.800 87.600 C 180.402 87.600,180.819 87.379,179.920 86.480 C 179.547 86.107,179.547 86.000,179.920 86.000 C 180.184 86.000,180.400 86.180,180.400 86.400 C 180.400 86.620,180.580 86.800,180.800 86.800 C 181.020 86.800,181.200 86.440,181.200 86.000 C 181.200 85.352,180.933 85.200,179.800 85.200 C 179.030 85.200,178.400 85.020,178.400 84.800 C 178.400 84.580,179.222 84.400,180.227 84.400 C 181.872 84.400,182.029 84.320,181.800 83.600 C 181.620 83.032,181.728 82.800,182.173 82.800 C 182.518 82.800,182.800 82.620,182.800 82.400 C 182.800 82.180,181.810 82.000,180.600 82.000 C 179.390 82.000,178.400 81.820,178.400 81.600 C 178.400 81.374,179.533 81.200,181.000 81.200 C 182.467 81.200,183.600 81.026,183.600 80.800 C 183.600 80.580,183.049 80.400,182.376 80.400 C 181.663 80.400,181.256 80.233,181.400 80.000 C 181.536 79.780,182.277 79.600,183.047 79.600 C 183.879 79.600,184.347 79.438,184.200 79.200 C 184.064 78.980,183.323 78.800,182.553 78.800 C 181.721 78.800,181.253 78.638,181.400 78.400 C 181.536 78.180,182.469 78.000,183.473 78.000 C 185.044 78.000,185.229 77.917,184.803 77.404 C 184.394 76.911,184.472 76.745,185.254 76.444 C 186.464 75.978,185.755 75.676,183.000 75.484 L 181.000 75.344 183.276 75.272 C 185.744 75.194,186.602 74.614,185.126 74.022 C 184.211 73.655,184.213 73.650,185.276 73.625 C 187.186 73.580,186.970 72.800,185.047 72.800 C 184.057 72.800,183.136 72.620,183.000 72.400 C 182.847 72.152,183.588 72.000,184.953 72.000 C 187.291 72.000,188.181 71.486,186.696 70.995 C 185.804 70.700,185.805 70.698,186.800 70.515 C 188.680 70.171,188.620 69.600,186.704 69.600 C 185.683 69.600,184.736 69.420,184.600 69.200 C 184.447 68.952,185.196 68.800,186.576 68.800 C 187.799 68.800,188.800 68.620,188.800 68.400 C 188.800 68.180,188.530 68.000,188.200 68.000 C 187.870 68.000,187.600 67.820,187.600 67.600 C 187.600 67.380,187.870 67.200,188.200 67.200 C 188.530 67.200,188.800 67.020,188.800 66.800 C 188.800 66.580,187.810 66.400,186.600 66.400 C 185.390 66.400,184.400 66.220,184.400 66.000 C 184.400 65.774,185.533 65.600,187.000 65.600 C 188.467 65.600,189.600 65.426,189.600 65.200 C 189.600 64.980,189.150 64.800,188.600 64.800 C 188.050 64.800,187.600 64.620,187.600 64.400 C 187.600 64.180,188.230 64.000,189.000 64.000 C 189.770 64.000,190.400 63.820,190.400 63.600 C 190.400 63.380,189.399 63.200,188.176 63.200 C 186.796 63.200,186.047 63.048,186.200 62.800 C 186.336 62.580,187.427 62.400,188.624 62.400 C 190.533 62.400,190.800 62.302,190.800 61.600 C 190.800 61.160,190.991 60.800,191.224 60.800 C 192.646 60.800,190.808 59.989,189.276 59.941 L 187.400 59.882 189.669 59.639 C 192.274 59.359,192.920 58.967,191.588 58.474 L 190.659 58.130 191.629 57.794 C 192.422 57.520,192.197 57.430,190.400 57.306 C 187.122 57.080,186.912 56.400,190.120 56.400 C 191.640 56.400,192.800 56.227,192.800 56.000 C 192.800 55.780,192.350 55.600,191.800 55.600 C 191.250 55.600,190.800 55.420,190.800 55.200 C 190.800 54.980,191.250 54.800,191.800 54.800 C 192.350 54.800,192.800 54.620,192.800 54.400 C 192.800 54.180,191.990 54.000,191.000 54.000 C 190.010 54.000,189.200 53.820,189.200 53.600 C 189.200 53.380,190.190 53.200,191.400 53.200 C 192.610 53.200,193.600 53.020,193.600 52.800 C 193.600 52.580,192.970 52.400,192.200 52.400 C 191.430 52.400,190.800 52.220,190.800 52.000 C 190.800 51.780,191.430 51.600,192.200 51.600 C 192.970 51.600,193.600 51.420,193.600 51.200 C 193.600 50.980,192.970 50.800,192.200 50.800 C 191.430 50.800,190.800 50.620,190.800 50.400 C 190.800 50.180,191.580 50.000,192.533 50.000 C 194.193 50.000,194.267 49.949,194.267 48.800 C 194.267 47.651,194.193 47.600,192.533 47.600 C 191.580 47.600,190.800 47.420,190.800 47.200 C 190.800 46.980,191.790 46.800,193.000 46.800 C 194.210 46.800,195.200 46.620,195.200 46.400 C 195.200 46.180,194.930 46.000,194.600 46.000 C 194.270 46.000,194.000 45.820,194.000 45.600 C 194.000 45.380,194.270 45.200,194.600 45.200 C 194.930 45.200,195.200 45.020,195.200 44.800 C 195.200 44.580,194.210 44.400,193.000 44.400 C 191.790 44.400,190.800 44.220,190.800 44.000 C 190.800 43.774,191.933 43.600,193.400 43.600 C 196.010 43.600,197.172 42.843,194.700 42.753 L 193.400 42.705 194.600 42.449 C 196.120 42.124,196.108 41.476,194.577 41.147 C 193.446 40.905,193.458 40.893,194.876 40.847 C 196.811 40.785,197.318 40.000,195.424 40.000 C 194.641 40.000,194.000 39.820,194.000 39.600 C 194.000 39.380,194.630 39.200,195.400 39.200 C 196.170 39.200,196.800 39.020,196.800 38.800 C 196.800 38.580,196.170 38.400,195.400 38.400 C 194.630 38.400,194.000 38.220,194.000 38.000 C 194.000 37.780,194.630 37.600,195.400 37.600 C 196.533 37.600,196.800 37.448,196.800 36.800 C 196.800 36.360,196.980 36.000,197.200 36.000 C 197.420 36.000,197.600 35.820,197.600 35.600 C 197.600 35.380,196.790 35.200,195.800 35.200 C 194.810 35.200,194.000 35.020,194.000 34.800 C 194.000 34.580,194.822 34.400,195.827 34.400 C 197.472 34.400,197.629 34.320,197.400 33.600 C 197.220 33.032,197.328 32.800,197.773 32.800 C 198.118 32.800,198.400 32.620,198.400 32.400 C 198.400 32.180,197.410 32.000,196.200 32.000 C 194.990 32.000,194.000 31.820,194.000 31.600 C 194.000 31.380,194.990 31.200,196.200 31.200 C 198.390 31.200,199.214 30.616,197.500 30.279 L 196.600 30.102 197.500 29.804 C 199.087 29.280,198.465 28.800,196.200 28.800 C 193.287 28.800,193.366 28.081,196.300 27.893 C 198.039 27.781,198.381 27.668,197.704 27.427 C 196.584 27.029,196.916 26.400,198.247 26.400 C 200.545 26.400,198.536 25.594,196.076 25.529 L 193.400 25.459 196.106 25.229 C 198.980 24.986,199.788 24.376,197.800 23.951 C 196.611 23.697,196.610 23.694,197.676 23.647 C 199.579 23.564,199.372 22.800,197.447 22.800 C 196.457 22.800,195.536 22.620,195.400 22.400 C 195.249 22.156,195.855 22.000,196.953 22.000 C 197.943 22.000,198.864 21.820,199.000 21.600 C 199.140 21.374,198.812 21.200,198.247 21.200 C 197.697 21.200,197.136 21.020,197.000 20.800 C 196.851 20.558,197.396 20.400,198.376 20.400 C 199.269 20.400,200.000 20.220,200.000 20.000 C 200.000 19.769,198.733 19.600,197.000 19.600 C 195.267 19.600,194.000 19.431,194.000 19.200 C 194.000 18.969,195.267 18.800,197.000 18.800 L 200.000 18.800 200.000 17.600 C 200.000 16.495,199.889 16.400,198.600 16.400 C 197.830 16.400,197.200 16.220,197.200 16.000 C 197.200 15.780,197.830 15.600,198.600 15.600 C 200.156 15.600,200.506 14.955,199.100 14.679 L 198.200 14.502 199.100 14.204 C 200.530 13.732,200.147 13.200,198.376 13.200 C 197.396 13.200,196.851 13.042,197.000 12.800 C 197.136 12.580,197.846 12.400,198.577 12.400 C 199.850 12.400,200.054 12.193,200.346 10.600 C 200.387 10.380,199.560 10.093,198.510 9.963 L 196.600 9.726 198.476 9.663 C 200.329 9.601,201.216 9.104,200.387 8.592 C 200.091 8.409,200.104 8.157,200.430 7.764 C 200.821 7.293,200.599 7.200,199.073 7.200 C 198.069 7.200,197.136 7.020,197.000 6.800 C 196.849 6.556,197.455 6.400,198.553 6.400 C 200.325 6.400,201.221 5.908,200.387 5.392 C 200.091 5.209,200.104 4.957,200.430 4.564 C 200.821 4.093,200.599 4.000,199.073 4.000 C 198.069 4.000,197.136 3.820,197.000 3.600 C 196.848 3.353,197.529 3.200,198.776 3.200 C 200.831 3.200,201.184 2.944,200.320 2.080 C 199.947 1.707,199.947 1.600,200.320 1.600 C 200.584 1.600,200.800 1.420,200.800 1.200 C 200.800 0.980,200.026 0.800,199.080 0.800 C 198.134 0.800,197.122 0.575,196.830 0.300 C 196.406 -0.100,196.262 -0.097,196.111 0.317 C 195.957 0.739,195.808 0.739,195.296 0.317 C 194.784 -0.106,194.638 -0.106,194.496 0.317 C 194.358 0.727,194.200 0.732,193.731 0.342 C 193.258 -0.050,193.066 -0.033,192.776 0.426 C 192.523 0.824,192.410 0.847,192.406 0.500 C 192.403 0.225,192.145 0.000,191.833 0.000 C 191.522 0.000,191.176 0.225,191.065 0.500 C 190.904 0.900,190.857 0.900,190.832 0.500 C 190.806 0.101,171.436 0.000,95.400 0.000 L 0.000 0.000 0.000 96.776 M146.000 131.600 C 146.000 131.820,145.550 132.000,145.000 132.000 C 144.450 132.000,144.000 131.820,144.000 131.600 C 144.000 131.380,144.450 131.200,145.000 131.200 C 145.550 131.200,146.000 131.380,146.000 131.600 M146.000 136.400 C 146.000 136.620,145.550 136.800,145.000 136.800 C 144.450 136.800,144.000 136.620,144.000 136.400 C 144.000 136.180,144.450 136.000,145.000 136.000 C 145.550 136.000,146.000 136.180,146.000 136.400 M133.400 144.000 C 133.545 144.234,133.130 144.400,132.400 144.400 C 131.670 144.400,131.255 144.234,131.400 144.000 C 131.536 143.780,131.986 143.600,132.400 143.600 C 132.814 143.600,133.264 143.780,133.400 144.000 M124.000 153.600 C 124.000 153.820,123.550 154.000,123.000 154.000 C 122.450 154.000,122.000 153.820,122.000 153.600 C 122.000 153.380,122.450 153.200,123.000 153.200 C 123.550 153.200,124.000 153.380,124.000 153.600 M120.700 158.276 C 120.315 158.376,119.685 158.376,119.300 158.276 C 118.915 158.175,119.230 158.093,120.000 158.093 C 120.770 158.093,121.085 158.175,120.700 158.276 M108.400 167.600 C 108.400 167.820,107.950 168.000,107.400 168.000 C 106.850 168.000,106.400 167.820,106.400 167.600 C 106.400 167.380,106.850 167.200,107.400 167.200 C 107.950 167.200,108.400 167.380,108.400 167.600 M102.200 170.800 C 102.064 171.020,101.614 171.200,101.200 171.200 C 100.786 171.200,100.336 171.020,100.200 170.800 C 100.055 170.566,100.470 170.400,101.200 170.400 C 101.930 170.400,102.345 170.566,102.200 170.800 M95.800 172.400 C 95.664 172.620,95.203 172.800,94.776 172.800 C 94.349 172.800,94.000 172.620,94.000 172.400 C 94.000 172.180,94.461 172.000,95.024 172.000 C 95.604 172.000,95.940 172.173,95.800 172.400 M98.700 173.876 C 98.315 173.976,97.685 173.976,97.300 173.876 C 96.915 173.775,97.230 173.693,98.000 173.693 C 98.770 173.693,99.085 173.775,98.700 173.876 M83.400 178.400 C 83.545 178.634,83.130 178.800,82.400 178.800 C 81.670 178.800,81.255 178.634,81.400 178.400 C 81.536 178.180,81.986 178.000,82.400 178.000 C 82.814 178.000,83.264 178.180,83.400 178.400 M77.200 183.200 C 77.200 183.420,76.750 183.600,76.200 183.600 C 75.650 183.600,75.200 183.420,75.200 183.200 C 75.200 182.980,75.650 182.800,76.200 182.800 C 76.750 182.800,77.200 182.980,77.200 183.200 M70.800 186.400 C 70.800 186.620,70.350 186.800,69.800 186.800 C 69.250 186.800,68.800 186.620,68.800 186.400 C 68.800 186.180,69.250 186.000,69.800 186.000 C 70.350 186.000,70.800 186.180,70.800 186.400 M58.400 188.000 C 58.400 188.220,57.950 188.400,57.400 188.400 C 56.850 188.400,56.400 188.220,56.400 188.000 C 56.400 187.780,56.850 187.600,57.400 187.600 C 57.950 187.600,58.400 187.780,58.400 188.000 M61.400 189.600 C 61.264 189.820,60.803 190.000,60.376 190.000 C 59.949 190.000,59.600 189.820,59.600 189.600 C 59.600 189.380,60.061 189.200,60.624 189.200 C 61.204 189.200,61.540 189.373,61.400 189.600 M48.700 191.076 C 48.315 191.176,47.685 191.176,47.300 191.076 C 46.915 190.975,47.230 190.893,48.000 190.893 C 48.770 190.893,49.085 190.975,48.700 191.076 M51.900 192.676 C 51.515 192.776,50.885 192.776,50.500 192.676 C 50.115 192.575,50.430 192.493,51.200 192.493 C 51.970 192.493,52.285 192.575,51.900 192.676 M27.000 194.000 C 27.140 194.227,26.804 194.400,26.224 194.400 C 25.661 194.400,25.200 194.220,25.200 194.000 C 25.200 193.780,25.549 193.600,25.976 193.600 C 26.403 193.600,26.864 193.780,27.000 194.000 M30.200 194.000 C 30.345 194.234,29.930 194.400,29.200 194.400 C 28.470 194.400,28.055 194.234,28.200 194.000 C 28.336 193.780,28.786 193.600,29.200 193.600 C 29.614 193.600,30.064 193.780,30.200 194.000 M33.400 195.600 C 33.545 195.834,33.130 196.000,32.400 196.000 C 31.670 196.000,31.255 195.834,31.400 195.600 C 31.536 195.380,31.986 195.200,32.400 195.200 C 32.814 195.200,33.264 195.380,33.400 195.600 M36.600 195.600 C 36.745 195.834,36.330 196.000,35.600 196.000 C 34.870 196.000,34.455 195.834,34.600 195.600 C 34.736 195.380,35.186 195.200,35.600 195.200 C 36.014 195.200,36.464 195.380,36.600 195.600 M5.200 197.200 C 5.200 197.420,4.750 197.600,4.200 197.600 C 3.650 197.600,3.200 197.420,3.200 197.200 C 3.200 196.980,3.650 196.800,4.200 196.800 C 4.750 196.800,5.200 196.980,5.200 197.200 M8.400 197.200 C 8.400 197.420,7.950 197.600,7.400 197.600 C 6.850 197.600,6.400 197.420,6.400 197.200 C 6.400 196.980,6.850 196.800,7.400 196.800 C 7.950 196.800,8.400 196.980,8.400 197.200 M11.600 197.200 C 11.600 197.420,11.150 197.600,10.600 197.600 C 10.050 197.600,9.600 197.420,9.600 197.200 C 9.600 196.980,10.050 196.800,10.600 196.800 C 11.150 196.800,11.600 196.980,11.600 197.200 M8.400 198.800 C 8.400 199.020,7.950 199.200,7.400 199.200 C 6.850 199.200,6.400 199.020,6.400 198.800 C 6.400 198.580,6.850 198.400,7.400 198.400 C 7.950 198.400,8.400 198.580,8.400 198.800 M14.800 198.800 C 14.800 199.020,14.350 199.200,13.800 199.200 C 13.250 199.200,12.800 199.020,12.800 198.800 C 12.800 198.580,13.250 198.400,13.800 198.400 C 14.350 198.400,14.800 198.580,14.800 198.800 M17.800 198.800 C 17.945 199.034,17.530 199.200,16.800 199.200 C 16.070 199.200,15.655 199.034,15.800 198.800 C 15.936 198.580,16.386 198.400,16.800 198.400 C 17.214 198.400,17.664 198.580,17.800 198.800 M21.000 198.800 C 21.144 199.033,20.737 199.200,20.024 199.200 C 19.351 199.200,18.800 199.020,18.800 198.800 C 18.800 198.580,19.239 198.400,19.776 198.400 C 20.313 198.400,20.864 198.580,21.000 198.800 " stroke="none" fill="#5494fc" fill-rule="evenodd"></path><path id="path4" d="M259.400 66.491 C 258.740 66.726,257.449 67.431,256.532 68.057 C 254.554 69.406,232.800 91.071,232.800 91.692 C 232.800 92.519,274.166 133.591,275.000 133.592 C 276.266 133.593,298.071 111.538,299.370 108.942 C 300.454 106.777,300.855 101.284,300.047 99.695 C 299.852 99.313,299.447 98.474,299.147 97.831 C 298.671 96.814,272.497 70.236,270.032 68.268 C 267.455 66.209,262.509 65.383,259.400 66.491 M267.800 67.383 C 270.390 68.597,297.767 96.040,299.016 98.675 C 300.305 101.394,300.376 105.724,299.175 108.400 C 298.371 110.191,275.945 133.200,275.004 133.200 C 274.344 133.200,233.600 92.255,233.600 91.592 C 233.600 90.933,255.012 69.456,257.000 68.120 C 259.801 66.238,264.651 65.907,267.800 67.383 M168.343 155.759 C 138.785 185.326,113.703 210.481,112.607 211.659 C 111.511 212.836,135.632 188.825,166.208 158.300 C 196.784 127.775,222.061 102.800,222.379 102.800 C 222.696 102.800,223.506 103.295,224.178 103.899 C 225.235 104.850,225.213 104.795,224.022 103.499 C 223.263 102.675,222.518 102.000,222.365 102.000 C 222.212 102.000,197.902 126.191,168.343 155.759 M244.700 124.412 C 255.315 135.077,264.000 143.983,264.000 144.202 C 264.000 144.422,238.980 169.621,208.400 200.201 L 152.799 255.800 132.700 255.914 C 121.645 255.977,112.195 255.929,111.700 255.807 L 110.800 255.585 110.800 234.769 C 110.800 220.993,110.665 214.036,110.400 214.200 C 109.737 214.610,109.889 254.820,110.557 255.700 C 111.051 256.351,112.554 256.400,132.011 256.400 L 152.935 256.400 208.658 200.700 C 239.306 170.065,264.386 144.706,264.391 144.347 C 264.398 143.809,232.106 111.106,226.932 106.410 C 226.089 105.646,234.085 113.746,244.700 124.412 M66.446 288.945 C 66.118 289.339,66.022 295.616,66.097 311.645 L 66.200 333.800 200.000 333.800 L 333.800 333.800 333.903 311.645 C 333.978 295.616,333.882 289.339,333.554 288.945 C 332.877 288.129,67.123 288.129,66.446 288.945 M333.400 311.200 L 333.400 333.400 200.000 333.400 L 66.600 333.400 66.496 311.600 C 66.439 299.610,66.478 289.575,66.584 289.299 C 66.737 288.900,93.648 288.819,200.088 288.899 L 333.400 289.000 333.400 311.200 " stroke="none" fill="#3c79db" fill-rule="evenodd"></path></g></svg>